<?xml version="1.0" encoding="utf-8"?>
<!-- Generator: Adobe Illustrator 22.1.0, SVG Export Plug-In . SVG Version: 6.00 Build 0)  -->
<svg version="1.1" id="Layer_1" xmlns="http://www.w3.org/2000/svg" xmlns:xlink="http://www.w3.org/1999/xlink" x="0px" y="0px"
	 viewBox="0 0 119.3 54" style="enable-background:new 0 0 119.3 54;" xml:space="preserve">
<style type="text/css">
	.st0{fill:#0858B7;}
	.st1{fill:#02194F;}
	.st2{fill:#FFFFFF;}
	.st3{fill:#0956B7;enable-background:new    ;}
	.st4{fill:#2094D9;}
</style>
<g>
	<g>
		<path class="st0" d="M-21.5-84.2c0,1.7-1.4,3-3,3s-3-1.4-3-3s1.4-3,3-3S-21.5-85.9-21.5-84.2z M-14.4-100.7v16
			c0,2-1.6,3.6-3.6,3.6c-0.4,0-0.8-0.1-1.2-0.2v-19.3h4.8C-14.4-100.6-14.4-100.7-14.4-100.7z"/>
		<path class="st0" d="M-3.6-90.2h-3.3v5.4c0,2-1.6,3.6-3.6,3.6c-0.4,0-0.8-0.1-1.2-0.2v-19.3h4.8v9h3.3L-3.6-90.2L-3.6-90.2z
			 M-0.1-100.8v4.8l-5.7-4.8H-0.1z M-5.9-81.2l5.7-4.8v4.8H-5.9z"/>
		<path class="st0" d="M1.5-100.8h5.9l-5.9,5V-100.8z M8.5-81.2v-19.6h4.8v19.6H8.5z M20.4-100.8v5l-6-5H20.4z"/>
		<path class="st0" d="M36.3-86.5c0,1.6-0.7,3-1.8,3.9c-0.9,0.8-2.2,1.3-3.5,1.3c1,0,1.9-0.8,1.9-1.9c0-0.5-0.2-1-0.6-1.4
			c0,0-8.4-7-8.6-7.2c-1-1-1.7-2.3-1.7-3.8c0-1.6,0.7-3,1.8-3.9c0.9-0.8,2.2-1.3,3.5-1.3c-1,0-1.9,0.8-1.9,1.9c0,0.5,0.2,1,0.6,1.4
			c0,0,8.4,7,8.6,7.2C35.6-89.3,36.3-88,36.3-86.5z M22.1-84.2c0-1.7,1.4-3,3-3s3,1.4,3,3c0,1.7-1.4,3-3,3S22.1-82.5,22.1-84.2z
			 M35.2-95.8l-5.9-5h5.9V-95.8z"/>
		<path class="st0" d="M43.4-84.2c0,1.7-1.4,3-3,3c-1.7,0-3-1.4-3-3s1.4-3,3-3S43.4-85.9,43.4-84.2z M55.3-81.2h-5.4l-7.2-14.2
			l2.7-5.3L55.3-81.2z"/>
		<path class="st0" d="M56.4-100.7h4.8v16c0,2-1.6,3.6-3.6,3.6c-0.4,0-0.9-0.1-1.2-0.2V-100.7L56.4-100.7z M72.6-91
			c0,5.9-5.1,9.8-8.8,9.8c1.3-0.8,3.4-4.9,3.4-9.8s-1.9-9-3.4-9.8C67.5-100.8,72.6-96.9,72.6-91z"/>
		<path class="st0" d="M79.7-84.2c0,1.7-1.4,3-3,3s-3-1.4-3-3s1.4-3,3-3S79.7-85.9,79.7-84.2z M91.6-81.2h-5.4L79-95.4l2.7-5.3
			L91.6-81.2z"/>
	</g>
	<g id="XMLID_34_">
		<g>
			<g id="XMLID_92_">
				<g id="XMLID_99_">
					<path id="XMLID_101_" class="st1" d="M30.8-133.9l-1.2,1.1l-3.1-1c-0.2-0.1-0.4-0.1-0.6-0.1l-3-0.2l2.3,0.7l0.3,0.6
						c0.1,0.3,0.4,0.5,0.7,0.7l1.6,0.5c0.2,0.1,0.5,0.1,0.7,0l1.6-0.5L30.8-133.9z"/>
					<path id="XMLID_100_" class="st1" d="M32.2-133.9l1.2,1.1l3.1-1c0.2-0.1,0.4-0.1,0.6-0.1l3-0.2l-2.3,0.7l-0.3,0.6
						c-0.1,0.3-0.4,0.5-0.7,0.7l-1.6,0.5c-0.2,0.1-0.5,0.1-0.7,0l-1.6-0.5L32.2-133.9z"/>
				</g>
				<path id="XMLID_96_" class="st1" d="M47-127.3l2,1.5l-0.8-4.1c-0.3-1.3-0.7-2.6-1.3-3.9l-0.4-0.7c3.2-4.6-0.1-8.2-0.1-8.2
					l-4.6,2.5l1.6,1.5l-8.3-3.9c-0.6-0.3-1.3-0.2-1.9,0.1l-1.8,1.2l-1.8-1.2c-0.6-0.4-1.3-0.4-1.9-0.1l-8.3,3.9l1.6-1.5l-4.6-2.5
					c0,0-3.3,3.6-0.1,8.2l-0.4,0.7c-0.6,1.2-1,2.5-1.3,3.9l-0.8,4.1l2-1.5l-0.5,2.5c-0.5,2.6-0.4,5.4,0.3,8l1.5,5.2l1.4-5.1L19-115
					c0.9,3.3,2.7,6.2,5.3,8.4l3.3,2.8l-1-4.7l4.8,4.7l4.8-4.7l-1,4.7l3.3-2.8c2.6-2.2,4.4-5.1,5.3-8.4l0.5-1.7l1.4,5.1l1.5-5.2
					c0.7-2.6,0.8-5.3,0.3-8L47-127.3z M39.1-128.1l-2.4,2.1l1.5,3.3c0.2,0.5,0.1,1.1-0.4,1.5l-2.1,1.6l-0.4,1.1
					c-0.3,1-0.9,1.9-1.6,2.6l-0.9,0.9l0.6-1.6l-1.3,0.2l-0.6-0.9l-0.6,0.9l-1.3-0.2l0.6,1.6l-0.9-0.9c-0.7-0.7-1.3-1.6-1.6-2.6
					l-0.4-1.1l-2.1-1.6c-0.5-0.3-0.6-1-0.4-1.5l1.5-3.3l-2.4-2.1c-0.7-0.6-0.9-1.6-0.6-2.5l1.2-3.2l-0.1-0.3c-0.2-0.4-0.1-0.8,0.3-1
					l4.1-2.8c0.3-0.2,0.6-0.2,1-0.1l1.8,0.8l1.8-0.8c0.3-0.1,0.7-0.1,1,0.1l4.1,2.8c0.3,0.2,0.5,0.7,0.3,1l-0.1,0.3l1.2,3.2
					C40-129.8,39.8-128.8,39.1-128.1z"/>
				<path id="XMLID_95_" class="st1" d="M34-129v1.7l-1.5-0.3c-0.7-0.1-1.3-0.1-2,0l-1.5,0.3v-1.7l-1.1,2.7l3.7,2.9l3.7-2.9L34-129z
					"/>
				<polygon id="XMLID_94_" class="st1" points="36.2,-119.8 31.8,-121.8 31.8,-124.6 31.1,-124.6 31.1,-124.6 31.1,-121.8 
					26.7,-119.8 27,-119.2 31.5,-121.3 36,-119.2 				"/>
				<polygon id="XMLID_93_" class="st1" points="32.2,-133.9 33.7,-126.5 35.1,-126.3 33.1,-132.4 				"/>
			</g>
			<path id="XMLID_91_" class="st1" d="M21.1-148.9c0.1,0,0.1,0,0.2,0l2.4,7.4H24l3.8-1.8c0.6-0.3,1.3-0.2,1.9,0.1l1.8,1.2l1.8-1.2
				c0.6-0.4,1.3-0.4,1.9-0.1l3.8,1.8h0.3l2.4-7.4c0.1,0,0.1,0,0.2,0c0.8,0,1.4-0.6,1.4-1.4s-0.6-1.4-1.4-1.4s-1.4,0.6-1.4,1.4
				c0,0.5,0.3,1,0.8,1.2c-0.9,1.1-2.5,2.3-5,2.2c-2.9-0.1-4-3.4-4.5-5.5c0.7-0.1,1.2-0.7,1.2-1.4c0-0.8-0.6-1.4-1.4-1.4
				s-1.4,0.6-1.4,1.4c0,0.7,0.5,1.3,1.2,1.4c-0.4,2.2-1.5,5.4-4.5,5.5c-2.6,0.1-4.2-1.2-5-2.2c0.5-0.2,0.8-0.7,0.8-1.2
				c0-0.8-0.6-1.4-1.4-1.4s-1.4,0.6-1.4,1.4S20.3-148.9,21.1-148.9z"/>
		</g>
	</g>
	<g>
		<g>
			<path class="st1" d="M10-64.3c-0.1-0.2-0.1-0.4-0.1-0.5h18.4l-0.4,0.9H10.4C10.2-64,10-64.2,10-64.3z M9.9-65.4
				c0-0.1,0.1-0.2,0.1-0.3l0.2-0.4h18.6l-0.4,0.9H9.9C9.9-65.3,9.9-65.3,9.9-65.4z M29.1-66.7L29-66.4H10.4l0.4-0.8h4.7l-0.2,0.5
				C15.3-66.7,29.1-66.7,29.1-66.7z M11.3-68.4H16l-0.4,0.8h-4.7L11.3-68.4z M11.9-69.6h4.7l-0.3,0.7h-4.8L11.9-69.6z M12.4-70.8
				h4.7l-0.3,0.7h-4.7L12.4-70.8z M13-72h4.7l-0.3,0.6h-4.7L13-72z M13.5-73.2h4.7L18-72.7h-4.7L13.5-73.2z M14.1-74.4h4.7l-0.2,0.5
				h-4.7L14.1-74.4z M14.6-75.5h4.7l-0.2,0.4h-4.7L14.6-75.5z M19.7-76.4H15l0.1-0.3h4.6V-76.4z"/>
			<path class="st1" d="M31.5-64.9h4.7L35.8-64h-4.7L31.5-64.9z M32.1-66.1h4.7l-0.4,0.9h-4.7L32.1-66.1z M32.6-67.3h4.7l-0.4,0.8
				h-4.7L32.6-67.3z M33.2-68.4h4.7l-0.4,0.8h-4.6L33.2-68.4z M33.7-69.6h4.7l-0.3,0.7h-4.7L33.7-69.6z M34.3-70.8H39l-0.3,0.7h-4.6
				L34.3-70.8z M34.8-72h4.7l-0.3,0.6h-4.7L34.8-72z M35.4-73.2H40l-0.3,0.5H35L35.4-73.2z M36-74.4h4.7l-0.2,0.5h-4.7L36-74.4z
				 M36.5-75.5h4.7L41-75.1h-4.6L36.5-75.5z M41.6-76.4h-4.7l0.1-0.3h4.7L41.6-76.4z"/>
			<path class="st1" d="M39.8-64.3c-0.1-0.2-0.1-0.4-0.1-0.5h20.4c-0.2,0.2-0.4,0.4-0.6,0.5c-0.2,0.2-0.5,0.3-0.7,0.4H40.3
				C40.1-64,39.9-64.2,39.8-64.3z M39.8-65.4c0-0.1,0.1-0.2,0.1-0.3l0.2-0.4h20.7l-0.2,0.4c-0.1,0.2-0.2,0.3-0.3,0.5H39.7
				C39.8-65.3,39.8-65.3,39.8-65.4z M56.7-67.3h4.7L61-66.5H40.3l0.4-0.8h4.7l-0.2,0.5h11.3L56.7-67.3z M41.2-68.4h4.7l-0.4,0.8
				h-4.7L41.2-68.4z M41.7-69.6h4.7l-0.3,0.7h-4.6L41.7-69.6z M42.3-70.8h4.6l-0.3,0.7h-4.7L42.3-70.8z M42.8-72h4.6l-0.3,0.6h-4.7
				L42.8-72z M43.4-73.2h4.7l-0.2,0.5h-4.7L43.4-73.2z M44-74.4h20.7l-0.2,0.5H43.8L44-74.4z M44.5-75.3c0-0.1,0.1-0.1,0.2-0.2h20.5
				c0,0.1,0,0.1,0,0.2s0,0.1-0.1,0.2H44.4C44.4-75.2,44.5-75.3,44.5-75.3z M46.4-76.6c0.2-0.1,0.4-0.1,0.6-0.1h16.9
				c0.4,0,0.7,0.1,0.9,0.3h-19C46-76.5,46.1-76.6,46.4-76.6z M57.3-68.4h4.6l-0.4,0.8h-4.6L57.3-68.4z M57.8-69.6h4.6l-0.3,0.7h-4.6
				L57.8-69.6z M58.4-70.8H63l-0.3,0.7h-4.6L58.4-70.8z M58.9-72h4.7l-0.3,0.6h-4.7L58.9-72z M59.5-73.2h4.6l-0.2,0.5h-4.7
				L59.5-73.2z"/>
			<path class="st1" d="M63.6-64.9h4.7L67.9-64h-4.7L63.6-64.9z M64.2-66.1h4.7l-0.4,0.9h-4.7L64.2-66.1z M64.7-67.3h4.7L69-66.5
				h-4.6L64.7-67.3z M65.3-68.4h4.6l-0.3,0.8h-4.7L65.3-68.4z M65.8-69.6h4.6l-0.3,0.7h-4.6L65.8-69.6z M66.4-70.8h4.7l-0.3,0.7
				h-4.6L66.4-70.8z M66.9-72h4.7l-0.3,0.6h-4.7L66.9-72z M67.5-73.2h4.6l-0.2,0.5h-4.7L67.5-73.2z M68-74.4h10l0.8,0.5H67.7
				L68-74.4z M68.6-75.5h7.3l0.7,0.4h-8.2L68.6-75.5z M73.8-76.7l0.6,0.3H69l0.2-0.3H73.8z M73-73.2h7.2l0.9,0.5h-7.2L73-73.2z
				 M82.9-71.7L83-72h4.7l-0.3,0.6H76.2L75.1-72h7.2L82.9-71.7z M77.2-70.8h9.9l-0.3,0.7h-8.4L77.2-70.8z M79.7-64.9h4.7L84-64h-4.7
				L79.7-64.9z M79.4-69.6h7.1l-0.3,0.7h-5.6L79.4-69.6z M80.3-66.1h4.6l-0.4,0.9h-4.7L80.3-66.1z M80.8-67.3h4.7l-0.4,0.8h-4.7
				L80.8-67.3z M81.4-68.4h4.7l-0.4,0.8h-4.6L81.4-68.4z M83.6-73.2h4.7L88-72.7h-4.7L83.6-73.2z M84.1-74.4h4.7l-0.2,0.5h-4.7
				L84.1-74.4z M84.7-75.5h4.7l-0.2,0.4h-4.7L84.7-75.5z M89.7-76.4H85l0.1-0.3h4.7L89.7-76.4z"/>
		</g>
		<g>
			<g>
				<path class="st1" d="M-26.5-64.9h4.7l-0.4,0.9h-4.7L-26.5-64.9z M-26-66.1h4.7l-0.4,0.9h-4.7L-26-66.1z M-25.4-67.3h4.7
					l-0.4,0.8h-4.7L-25.4-67.3z M-24.8-68.4h4.7l-0.4,0.8h-4.6L-24.8-68.4z M-24.3-69.6h4.7l-0.3,0.7h-4.7L-24.3-69.6z M-23.7-70.8
					h4.7l-0.3,0.7h-4.6L-23.7-70.8z M-23.2-72h4.7l-0.3,0.6h-4.7L-23.2-72z M-22.6-73.2h4.6l-0.3,0.5H-23L-22.6-73.2z M-22.1-74.4
					h4.7l-0.2,0.5h-4.7L-22.1-74.4z M-21.5-75.5h4.7l-0.2,0.4h-4.6L-21.5-75.5z M-16.5-76.4h-4.7l0.1-0.3h4.7L-16.5-76.4z"/>
				<path class="st1" d="M-22.2-64.9h4.7l-0.4,0.9h-4.7L-22.2-64.9z M-21.6-66.1h4.7l-0.4,0.9H-22L-21.6-66.1z M-21-67.3h4.7
					l-0.4,0.8h-4.7L-21-67.3z M-20.5-68.4h4.7l-0.4,0.8h-4.6L-20.5-68.4z M-19.9-69.6h4.7l-0.3,0.7h-4.7L-19.9-69.6z M-19.4-70.8
					h4.7l-0.3,0.7h-4.6L-19.4-70.8z M-18.8-72h4.7l-0.3,0.6h-4.7L-18.8-72z M-18.3-73.2h4.6l-0.3,0.5h-4.5L-18.3-73.2z M-17.7-74.4
					h4.7l-0.2,0.5h-4.7L-17.7-74.4z M-17.2-75.5h4.7l-0.2,0.4h-4.6L-17.2-75.5z M-12.1-76.4h-4.7l0.1-0.3h4.7L-12.1-76.4z"/>
				<path class="st1" d="M-17.8-64.9h4.7l-0.4,0.9h-4.7L-17.8-64.9z M-17.2-66.1h4.7l-0.4,0.9h-4.7L-17.2-66.1z M-16.7-67.3h4.7
					l-0.4,0.8h-4.7L-16.7-67.3z M-16.1-68.4h4.7l-0.4,0.8h-4.7L-16.1-68.4z M-15.6-69.6h4.7l-0.3,0.7h-4.7L-15.6-69.6z M-15-70.8
					h4.7l-0.3,0.7h-4.6L-15-70.8z M-14.5-72h4.7l-0.3,0.6h-4.7L-14.5-72z M-13.9-73.2h4.6l-0.3,0.5h-4.7L-13.9-73.2z M-13.4-74.4
					h4.7l-0.2,0.5h-4.7L-13.4-74.4z M-12.8-75.5h4.7l-0.2,0.4h-4.6L-12.8-75.5z M-7.8-76.4h-4.7l0.1-0.3h4.7L-7.8-76.4z"/>
				<path class="st1" d="M-13.4-64.9h4.7L-9.1-64h-4.7L-13.4-64.9z M-12.9-66.1h4.7l-0.4,0.9h-4.7L-12.9-66.1z M-12.3-67.3h4.7
					L-8-66.5h-4.7L-12.3-67.3z M-11.8-68.4h4.7l-0.4,0.8h-4.6L-11.8-68.4z M-11.2-69.6h4.7l-0.3,0.7h-4.7L-11.2-69.6z M-10.7-70.8
					H-6l-0.3,0.7h-4.6L-10.7-70.8z M-10.1-72h4.7l-0.3,0.6h-4.7L-10.1-72z M-9.6-73.2H-5l-0.3,0.5H-10L-9.6-73.2z M-9-74.4h4.7
					l-0.2,0.5h-4.7L-9-74.4z M-8.5-75.5h4.7L-4-75.1h-4.6L-8.5-75.5z M-3.4-76.4h-4.7l0.1-0.3h4.7L-3.4-76.4z"/>
				<path class="st1" d="M-9.1-64.9h4.7L-4.8-64h-4.7L-9.1-64.9z M-8.5-66.1h4.7l-0.4,0.9h-4.7L-8.5-66.1z M-8-67.3h4.7l-0.4,0.8
					h-4.7L-8-67.3z M-7.4-68.4h4.7l-0.4,0.8h-4.6L-7.4-68.4z M-6.9-69.6h4.7l-0.3,0.7h-4.7L-6.9-69.6z M-6.3-70.8h4.7l-0.3,0.7h-4.6
					L-6.3-70.8z M-5.8-72h4.7l-0.3,0.6h-4.7L-5.8-72z M-5.2-73.2h4.6l-0.3,0.5h-4.6L-5.2-73.2z M-4.6-74.4h4.7l-0.2,0.5h-4.7
					L-4.6-74.4z M-4.1-75.5h4.7l-0.2,0.4h-4.6L-4.1-75.5z M1-76.4h-4.7l0.1-0.3h4.7L1-76.4z"/>
				<path class="st1" d="M-4.7-64.9H0L-0.4-64h-4.7L-4.7-64.9z M-4.2-66.1h4.7l-0.4,0.9h-4.7L-4.2-66.1z M-3.6-67.3h4.7l-0.4,0.8H-4
					L-3.6-67.3z M-3-68.4h4.7l-0.4,0.8h-4.6L-3-68.4z M-2.5-69.6h4.7l-0.3,0.7h-4.7L-2.5-69.6z M-2-70.8h4.7l-0.3,0.7h-4.6L-2-70.8z
					 M-1.4-72h4.7L3-71.4h-4.7L-1.4-72z M-0.8-73.2h4.6l-0.3,0.5h-4.7L-0.8-73.2z M-0.3-74.4h4.7l-0.2,0.5h-4.7L-0.3-74.4z
					 M0.3-75.5H5l-0.2,0.4H0.2L0.3-75.5z M5.3-76.4H0.6l0.1-0.3h4.7L5.3-76.4z"/>
				<path class="st1" d="M-0.4-64.9h4.7L3.9-64h-4.7L-0.4-64.9z M0.2-66.1h4.7l-0.4,0.9h-4.7L0.2-66.1z M0.8-67.3h4.7l-0.4,0.8H0.4
					L0.8-67.3z M1.3-68.4H6l-0.4,0.8H1L1.3-68.4z M1.9-69.6h4.7l-0.3,0.7H1.5L1.9-69.6z M2.4-70.8h4.7l-0.3,0.7H2.2L2.4-70.8z
					 M2.9-72h4.7l-0.3,0.6H2.6L2.9-72z M3.5-73.2h4.6l-0.3,0.5H3.1L3.5-73.2z M4.1-74.4h4.7l-0.2,0.5H3.9L4.1-74.4z M4.6-75.5h4.7
					l-0.2,0.4H4.5L4.6-75.5z M9.7-76.4H5l0.1-0.3h4.7L9.7-76.4z"/>
			</g>
		</g>
	</g>
</g>
<g>
	<path class="st2" d="M10.6,18c0,0.6-0.1,1.2-0.2,1.8s-0.4,1.1-0.7,1.5s-0.7,0.8-1.2,1s-1.1,0.4-1.8,0.4c-0.5,0-1-0.1-1.4-0.2
		S4.5,22.2,4.2,22s-0.6-0.5-0.7-0.8c-0.2-0.3-0.3-0.7-0.3-1.1c0-0.5,0.1-0.9,0.4-1.1c0.3-0.3,0.7-0.4,1.2-0.4c0.2,0,0.4,0,0.6,0.1
		s0.3,0.2,0.4,0.3c0.1,0.1,0.1,0.2,0.2,0.3c0,0.1,0.1,0.2,0.1,0.3c0,0.2,0,0.3-0.1,0.4c0,0.1-0.1,0.3-0.1,0.4s-0.1,0.3-0.1,0.4
		s-0.1,0.3-0.1,0.5c0,0.4,0.1,0.6,0.3,0.8c0.2,0.1,0.5,0.2,0.9,0.2c0.5,0,0.8-0.2,1.1-0.5s0.4-0.9,0.4-1.8V5.8H5.8V5.6h7.6v0.3h-2.6
		L10.6,18z"/>
	<path class="st2" d="M14.4,22H17V5.9h-2.6V5.6h13.5v4.1h-0.3C27.4,9,27.2,8.5,27,8s-0.5-0.9-0.9-1.2c-0.3-0.3-0.7-0.6-1.2-0.7
		c-0.5-0.2-1-0.2-1.6-0.2h-3.9v7.3h1.5c0.5,0,1,0,1.3-0.1c0.4-0.1,0.7-0.3,0.9-0.5c0.3-0.3,0.5-0.6,0.7-1.1c0.2-0.4,0.4-1,0.5-1.7
		h0.3v7.3h-0.3c-0.1-0.5-0.2-0.9-0.3-1.3c-0.1-0.4-0.3-0.8-0.5-1.1s-0.5-0.6-0.8-0.8s-0.8-0.3-1.4-0.3h-1.9v8.5h4.4
		c0.9,0,1.6-0.2,2.2-0.6s1-0.8,1.4-1.3s0.6-1,0.8-1.6c0.2-0.5,0.3-1,0.3-1.4h0.3v5.2H14.4V22z"/>
	<path class="st2" d="M34.6,22h2.6V5.9h-1.4c-0.3,0-0.7,0-1.1,0.1c-0.4,0.1-0.8,0.2-1.2,0.5s-0.8,0.6-1.2,1.2
		c-0.4,0.5-0.7,1.3-0.9,2.2h-0.3V5.6h14.3v4.3h-0.3c-0.3-1-0.6-1.7-1-2.2s-0.8-0.9-1.2-1.2c-0.4-0.2-0.8-0.4-1.2-0.5
		S41,5.9,40.6,5.9h-1.4V22h2.6v0.3h-7.6L34.6,22z"/>
	<path class="st2" d="M48.1,17.2h0.3c0.2,0.8,0.4,1.6,0.7,2.1c0.3,0.6,0.6,1.1,0.9,1.4c0.3,0.4,0.7,0.7,1,0.9
		c0.4,0.2,0.7,0.4,1.1,0.4c0.4,0.1,0.7,0.1,1.1,0.2c0.3,0,0.7,0,1,0c0.8,0,1.5-0.1,2-0.4s1-0.6,1.3-1s0.5-0.8,0.7-1.2
		c0.1-0.4,0.2-0.9,0.2-1.2c0-0.5-0.1-1-0.3-1.4s-0.5-0.7-0.8-1c-0.3-0.3-0.7-0.5-1-0.7s-0.7-0.3-1-0.4l-2.7-0.8
		c-1.3-0.4-2.2-0.9-2.9-1.5s-1-1.5-1-2.6c0-0.7,0.1-1.4,0.4-2c0.2-0.6,0.6-1.1,1.1-1.6c0.5-0.4,1-0.8,1.6-1C52.4,5.1,53.1,5,53.9,5
		c0.5,0,1,0,1.4,0.1s0.7,0.2,1,0.3c0.3,0.1,0.5,0.2,0.7,0.3C57,5.9,57.2,6,57.4,6s0.3,0,0.4-0.1s0.2-0.2,0.3-0.4h0.3v4.3h-0.3
		c-0.1-0.6-0.3-1.1-0.5-1.6s-0.5-1-0.9-1.4s-0.8-0.7-1.3-1c-0.5-0.2-1.1-0.4-1.8-0.4c-0.4,0-0.8,0.1-1.2,0.2
		c-0.5,0.1-0.9,0.3-1.3,0.5c-0.4,0.3-0.7,0.6-1,1C50,7.5,49.8,8,49.8,8.6c0,0.5,0.1,0.9,0.3,1.3c0.2,0.4,0.5,0.7,0.8,0.9
		s0.7,0.4,1.1,0.6c0.4,0.2,0.8,0.3,1.2,0.4l2.8,0.9c0.3,0.1,0.7,0.2,1.1,0.4c0.5,0.2,0.9,0.4,1.3,0.7c0.4,0.3,0.8,0.7,1.1,1.2
		s0.5,1.2,0.5,2c0,0.7-0.1,1.4-0.4,2.1c-0.3,0.7-0.7,1.3-1.2,1.8s-1.1,0.9-1.9,1.2c-0.7,0.3-1.6,0.5-2.5,0.5c-0.3,0-0.6,0-0.9,0
		c-0.3,0-0.5,0-0.7-0.1c-0.2,0-0.4-0.1-0.7-0.1c-0.2,0-0.5-0.1-0.7-0.2c-0.3-0.1-0.7-0.2-1-0.3c-0.4-0.1-0.7-0.2-0.9-0.2
		s-0.4,0-0.5,0.1s-0.2,0.2-0.2,0.4H48L48.1,17.2z"/>
	<path class="st2" d="M62.1,21.9h2.1L70.4,5H71l6.4,16.8h2.1v0.3h-7.2v-0.3h2.6l-2.5-6.5h-5.5l-2.5,6.5H67v0.3h-5.1L62.1,21.9z
		 M69.7,8.2L67.1,15h5.2L69.7,8.2z"/>
	<path class="st2" d="M80.2,21.9h2.6V5.8h-2.6V5.5h4.4c0.2,0,0.4,0,0.7,0c0.2,0,0.4,0,0.7,0c0.2,0,0.4,0,0.7,0c0.2,0,0.4,0,0.7,0
		c0.5,0,0.9,0,1.3,0s0.7,0,1,0.1c0.3,0,0.6,0.1,0.9,0.2s0.6,0.2,0.9,0.3c1,0.3,1.8,0.7,2.5,1.3c0.7,0.5,1.3,1.1,1.7,1.8
		s0.8,1.4,1,2.3c0.2,0.8,0.3,1.7,0.3,2.6c0,1-0.1,2-0.4,2.8c-0.2,0.8-0.6,1.6-1,2.2s-1,1.2-1.5,1.6c-0.6,0.5-1.2,0.8-1.9,1.1
		c-0.4,0.2-0.7,0.3-1.1,0.4c-0.3,0.1-0.7,0.2-1,0.2s-0.7,0.1-1.2,0.1c-0.4,0-0.9,0-1.5,0c-0.2,0-0.5,0-0.8,0s-0.5,0-0.8,0
		s-0.5,0-0.8,0s-0.5,0-0.7,0h-4L80.2,21.9z M85.2,21.8c0.3,0,0.6,0.1,0.9,0.1s0.7,0,1.2,0s1.1,0,1.6-0.1s1-0.2,1.5-0.4
		c0.5-0.2,0.9-0.4,1.3-0.8c0.4-0.3,0.8-0.8,1.1-1.3c0.5-0.8,0.8-1.7,1-2.6s0.3-1.9,0.3-2.9c0-1.2-0.1-2.4-0.4-3.4
		c-0.2-1-0.6-1.9-1.2-2.6c-0.5-0.7-1.3-1.3-2.2-1.7c-0.9-0.4-2-0.6-3.3-0.6c-0.4,0-0.7,0-1.1,0c-0.3,0-0.6,0-0.9,0L85.2,21.8z"/>
	<path class="st2" d="M97.4,21.8h2.1L105.8,5h0.6l6.4,16.8h2.1v0.3h-7.2v-0.3h2.6l-2.5-6.5h-5.5l-2.5,6.5h2.6v0.3h-5.1L97.4,21.8z
		 M105,8.1l-2.6,6.9h5.2L105,8.1z"/>
</g>
<g>
	<g>
		<path class="st3" d="M63,34.3c0,0,0.1,1.7-0.4,2.8s-2.5,2.7-2.5,2.7S62.3,37.5,63,34.3 M61.1,35c0,0,0.1,1.4-1,2.7s-1.5,1.2-2.4,2
			S56.4,41,56.4,41s0.5-1.3,1.8-2.4C59.7,37.5,60.9,36.4,61.1,35z M59.6,34.7c0,0-0.1,0.7-0.3,1.1c-0.2,0.4-0.6,0.8-0.6,0.8
			S60.1,36.2,59.6,34.7z M65.7,34.1c0,0,0.3,0.3,0.7,1.2c0.3,0.9,0.1,2.6,0.1,2.6S68,35,65.7,34.1z M66.8,33.3c0,0,0.5,0.2,0.8,0.5
			s0.7,1.1,0.7,1.1S68.4,32.9,66.8,33.3z M57,30.7c-0.1,0-0.2,0-0.3,0.1c-1.4,0.2-2.7,0.4-2.9,0.6c-0.1,0.2-0.1,0.6-0.1,0.6l1.2-0.1
			c0,0-1,0.2-1,0.6s0.4,1,0.6,1s0.5-0.2,0.5-0.2s0,0.5,0.2,0.7c0.2,0.3,0.5,0.4,0.5,0.4s-0.2-0.5-0.2-0.8s0.1-0.6,0.1-0.6
			s1-0.2,1.3-0.2s0.4,0.7,0.5,1.4s-0.3,0.9-0.7,1S56,35.3,56,35.3s-0.1,0-0.2-0.2s-0.1-0.4-0.1-0.4s-0.1,0.1-0.2,0.3
			c-0.1,0.2,0,0.5,0,0.5s-0.4-0.1-0.6,0c-0.2,0.2-0.1,0.7,0.1,1.1s1.1,0.5,1.5,0c0.3-0.5,0.6-0.9,1-0.7S57.3,37,57.3,37l0.7-0.4
			c0,0-1.2,1.1-1.6,1.7c-0.5,0.6-0.9,1.5-1.1,2.4s0.1,1.5,0.1,1.5s-0.7,1.6-0.2,3.2s1.2,2.1,1.2,2.1s-0.7-1.5-0.2-4
			c0.6-2.6,2.7-3.2,2.7-3.2s-1,0.6-1.7,2.1s0,3.3,0,3.3s-0.5-2,1.4-3.5s4-2.4,4.9-4.6s0.3-3.9,0.3-3.9s1,0.9,0.2,3.8
			s-2.9,3.8-3.9,4.5c-1,0.8-1.3,2-1.3,2s0.7-1.6,2.8-2.1s2.9-0.9,3.7-1.7c0.9-0.8,1-1.8,1-1.8s0.1,1.3-0.3,2.1s-0.9,1.2-0.9,1.2
			s1.4-0.1,2.5-2.3c1-2.2,0.5-3.8,0.5-3.8c0.8,0.8,1.6,2.1,0.9,3.2c1.8-1.5,1-5.8-0.6-7.1c0,0,0.9,0.1,1.4,0.4
			c0.4,0.3,0.7,0.7,0.7,0.7s0.2-2.1-1.6-3.5c-1.8-1.4-3.4-1-3.4-1s0.6-0.5,1-0.6s0.9,0,0.9,0s-0.8-0.7-2.1-0.8
			c-1.3-0.1-1.9,0.3-1.9,0.3s0.3-0.4,0.7-0.6c0.4-0.1,0.7-0.1,0.7-0.1S64.5,26,63.4,26s-1.5,0.6-1.5,0.6S61,26,59.4,27.1
			c-1.3,0.9-0.9,2.2-0.9,2.2S57.3,30.1,57,30.7z M57.3,31.3l2.2-0.6c0,0-0.5,0.8-1.3,0.9C57.9,31.7,57.6,31.6,57.3,31.3z M63.5,30.7
			c0.1,0.2,0.2,0.4,0.1,0.6c-0.2,0.4-0.5,0.4-0.7,0.6c-0.2,0.3-0.3,0.5-0.3,0.5s-0.1-0.6,0.3-1c0.3-0.2,0.2-0.5,0.1-0.7
			c-0.9,0.2-1.2,1-1.2,1s-0.4-0.6-0.2-1c0.3-0.5,1-1.1,2.1-0.9c1.2,0.3,0.9,1.8,0.3,2.1c-0.6,0.3-1.2,0.7-1.2,0.7s0.2-0.7,0.8-1
			C64.1,31.5,64,30.7,63.5,30.7z M70.6,33.7c0.8,1.9,0.9,4.1,0.4,6.2c-1.4,5.3-6.8,8.4-12.1,7c-0.4-0.1-0.8-0.2-1.2-0.4l-0.1,0.1
			c-0.3,0.1-0.6,0-0.7-0.3c0,0.5,0.1,0.9,0.3,1.3c0.1,0.3,0.1,0.5-0.1,0.7s-0.5,0.2-0.7,0c-0.7-0.5-1.2-1.6-1.5-2.4
			c-0.1-0.4-0.2-0.9-0.2-1.4c-2.5-2.4-3.6-6.1-2.7-9.6c0.3-1.3,0.9-2.4,1.7-3.4c0-0.1,0.1-0.2,0.1-0.2c0.1-0.1,0.1-0.2,0.2-0.2
			c1.2-1.4,2.8-2.5,4.5-3c0.2-0.4,0.5-0.7,0.9-1c0.7-0.5,1.8-1,2.7-0.7c0.5-0.3,1.1-0.5,1.6-0.5c0.6,0,1.5,0.2,1.9,0.7
			c0,0,0,0,0,0.1l0,0c0.8,0.1,1.9,0.4,2.5,1c0.2,0.2,0.3,0.5,0.1,0.7c0,0,0,0.1-0.1,0.1c0.5,0.2,0.9,0.5,1.3,0.7
			c1.2,0.9,2,2.5,1.9,4c0,0.3-0.2,0.5-0.5,0.5c-0.1,0-0.3,0-0.4,0L70.6,33.7L70.6,33.7z"/>
		<g>
			<path class="st4" d="M26.4,28.9h5.5v13.4h8.6v4.4h-14V28.9H26.4z"/>
			<path class="st4" d="M42.5,28.9H48v17.8h-5.5V28.9z"/>
			<path class="st4" d="M74.3,28.9h5.1l6.7,9.8v-9.8h5.2v17.8h-5.2L79.5,37v9.7h-5.2V28.9z"/>
		</g>
	</g>
	<polygon class="st2" points="16.8,33.6 18.3,36.7 21.7,37.2 19.3,39.6 19.9,43 16.8,41.4 13.7,43 14.3,39.6 11.9,37.2 15.3,36.7 	
		"/>
	<polygon class="st2" points="100.8,33.6 102.3,36.7 105.7,37.2 103.3,39.6 103.9,43 100.8,41.4 97.7,43 98.3,39.6 95.9,37.2 
		99.3,36.7 	"/>
</g>
<g id="Agqtkg_1_">
	
		<image style="overflow:visible;enable-background:new    ;" width="401" height="403" id="Agqtkg" xlink:href="BD094C3FAD8DDCBB.jpeg"  transform="matrix(0.4318 0 0 0.4318 -260.2682 -224.2792)">
	</image>
</g>
</svg>
